<?xml version="1.0" encoding="utf-8"?>
<!-- Generator: Adobe Illustrator 26.0.2, SVG Export Plug-In . SVG Version: 6.00 Build 0)  -->
<svg version="1.1" id="Capa_1" xmlns="http://www.w3.org/2000/svg" xmlns:xlink="http://www.w3.org/1999/xlink" x="0px" y="0px"
	 viewBox="0 0 1125 2436" style="enable-background:new 0 0 1125 2436;" xml:space="preserve">
<style type="text/css">
	.st0{fill:#5700FF;stroke:#000000;stroke-miterlimit:10;}
	.st1{fill:#FFFFFF;}
	.st2{fill:#5700FF;stroke:#5700FF;stroke-miterlimit:10;}
</style>
<rect x="1172.5" y="-0.5" class="st0" width="1124" height="2436"/>
<rect x="-1063.6" y="758.2" style="fill:none;" width="847.2" height="244.4"/>
<text transform="matrix(1 0 0 1 -1063.5557 885.7222)" style="font-family:'Silka-Black'; font-size:170px;">localy</text>
<rect x="-1048.6" y="1334.2" style="fill:none;" width="847.2" height="244.4"/>
<text transform="matrix(1 0 0 1 -1048.5557 1457.4707)" style="font-family:'Wotfard-BoldItalic'; font-size:170px;">localy</text>
<rect x="-1063.6" y="1628.2" style="fill:none;" width="847.2" height="244.4"/>
<text transform="matrix(1 0 0 1 -1063.5557 1759.1201)" style="font-family:'F37GruffySoftTest-BlackItalic'; font-size:170px;">localy</text>
<rect x="-1063.6" y="989.2" style="fill:none;" width="847.2" height="244.4"/>
<text transform="matrix(1 0 0 1 -1063.5557 1116.7222)" style="font-family:'Silka-BlackItalic'; font-size:170px;">localy</text>
<rect x="1449.4" y="372.2" style="fill:none;" width="571.6" height="197.8"/>
<text transform="matrix(1 0 0 1 1449.4443 499.7222)" class="st1" style="font-family:'Silka-BlackItalic'; font-size:170px;">localy</text>
<rect x="1620.4" y="1602.2" style="fill:none;" width="227.6" height="197.8"/>
<text transform="matrix(1 0 0 1 1620.4443 1729.7227)" class="st1" style="font-family:'Silka-BlackItalic'; font-size:170px;">lly</text>
<g>
	<path class="st1" d="M239.3,2935.4l2.5,10.5c1,4.2-0.3,7.1-4.4,8.3c-4.6,1.5-9.5,2.6-15,2.6c-15.1,0-27.9-8.7-27.9-25.8
		c0-2.4,0.2-4.1,0.5-6.8l16.5-93.8c0.7-4.2,3.2-6.1,7.3-6.1h16.5c4.6,0,7.1,2.5,6.3,7.3l-15.5,88.7c-0.5,2.5-0.5,3.4-0.5,4.4
		c0,3.4,1.9,5.6,5.8,5.6c1,0,2-0.2,3.1-0.3C236.5,2929.5,238.2,2931.2,239.3,2935.4z"/>
	<path class="st1" d="M345.7,2905c0,30.6-21.8,51.8-50.5,51.8c-29.9,0-45-19.4-45-42.3c0-30.6,21.8-51.8,50.5-51.8
		C330.5,2862.6,345.7,2882,345.7,2905z M299.1,2889.2c-12.2,0-18.4,11.1-18.4,24.3c0,9.2,4.9,16.8,16,16.8c12.2,0,18.4-11,18.4-24.3
		C315.1,2896.8,310.1,2889.2,299.1,2889.2z"/>
	<path class="st1" d="M446.8,2927.9c-8.2,17.7-23.6,28.9-45.4,28.9c-30.1,0-45.2-19.4-45.2-42.3c0-30.6,21.8-51.8,50.7-51.8
		c24.8,0,37.7,13.3,43,29.6c1.4,4.2-1,7.1-5.4,7.8l-16.5,2.6c-4.1,0.7-6.1-1.4-8.2-5.1c-2.7-4.9-7.5-8.3-14.5-8.3
		c-11.7,0-18.5,11.1-18.5,24.3c0,9.2,5.6,16.8,16.2,16.8c6.3,0,11.6-3.4,14.8-8.5c2.2-3.6,4.4-5.3,8.5-4.6l15.8,2.4
		C446.7,2920.3,448.9,2923.5,446.8,2927.9z"/>
	<path class="st1" d="M550.2,2895.8c0,2,0,4.1-0.9,9.4l-7.6,43.9c-0.7,4.2-3.2,6.1-7.3,6.1h-13.1c-4.6,0-7-2.5-6.1-7.3l0.9-4.9
		c-6.8,8.3-16.7,13.9-29.6,13.9c-18.5,0-28.2-10.9-28.2-23.5c0-18.5,15.1-23.6,35.5-28.7l25.8-6.5c-0.9-6.5-5.6-10-15-10
		c-6.1,0-12.4,2.9-17.7,8c-3.1,3.1-5.9,3.7-9.5,1.2l-9.2-6.5c-3.7-2.7-4.4-6-1.5-9.2c10.5-11.9,24.5-19,42-19
		C534,2862.6,550.2,2876.2,550.2,2895.8z M516.7,2919.6l0.8-4.6l-16.8,4.6c-8.5,2.4-11.4,5.1-11.4,9.5c0,3.6,2.4,7,8.2,7
		C505.3,2936.1,514,2930,516.7,2919.6z"/>
	<path class="st1" d="M605.8,2935.4l2.5,10.5c1,4.2-0.3,7.1-4.4,8.3c-4.6,1.5-9.5,2.6-15,2.6c-15.1,0-27.9-8.7-27.9-25.8
		c0-2.4,0.2-4.1,0.5-6.8l16.5-93.8c0.7-4.2,3.2-6.1,7.3-6.1h16.5c4.6,0,7.1,2.5,6.3,7.3l-15.5,88.7c-0.5,2.5-0.5,3.4-0.5,4.4
		c0,3.4,1.9,5.6,5.8,5.6c1,0,2-0.2,3.1-0.3C603.1,2929.5,604.8,2931.2,605.8,2935.4z"/>
	<path class="st1" d="M717,2871.7l-14.1,80.6c-4.9,28-25.3,47.7-55.2,47.7c-21.8,0-38.6-7.5-46.9-22.8c-2-3.7-0.7-7,2.9-9l13.6-7.8
		c3.7-2.2,6.6-1.2,9.2,2.4c5.1,7,12.4,10.7,22.8,10.7c12.4,0,21.1-9.1,23.6-23.4l1.5-8.8c-5.6,5.4-13.3,8.8-23.3,8.8
		c-18.4,0-33.3-11.9-33.3-32.6c0-2.4,0.3-6.8,1-11.2l6.1-35.7c0.7-4.2,3.2-6.1,7.3-6.1h16.5c4.6,0,7,2.5,6.1,7.3l-5.4,31.6
		c-0.5,2.9-1,6.3-1,9.2c0,9.3,5.9,13.6,14.6,13.6c7.7,0,15.1-4.6,16.8-15.5h0.2l7.1-40.1c0.7-4.2,3.2-6.1,7.3-6.1h16.5
		C715.5,2864.3,717.9,2866.9,717,2871.7z"/>
</g>
<g>
	<path class="st0" d="M965.9,2349.6l1.6,6.6c0.6,2.7-0.2,4.5-2.8,5.2c-2.9,1-5.9,1.6-9.3,1.6c-9.5,0-17.4-5.4-17.4-16.1
		c0-1.5,0.1-2.5,0.3-4.2l10.3-58.6c0.4-2.7,2-3.8,4.6-3.8h10.3c2.9,0,4.5,1.6,3.9,4.6l-9.7,55.4c-0.3,1.6-0.3,2.1-0.3,2.8
		c0,2.1,1.2,3.5,3.6,3.5c0.6,0,1.3-0.1,1.9-0.2C964.2,2345.9,965.3,2347,965.9,2349.6z"/>
	<path class="st0" d="M931,2349.5l1.6,6.6c0.6,2.7-0.2,4.5-2.8,5.2c-2.9,1-5.9,1.6-9.3,1.6c-9.5,0-17.4-5.4-17.4-16.1
		c0-1.5,0.1-2.5,0.3-4.2l10.3-58.6c0.4-2.7,2-3.8,4.6-3.8h10.3c2.9,0,4.5,1.6,3.9,4.6l-9.7,55.4c-0.3,1.6-0.3,2.1-0.3,2.8
		c0,2.1,1.2,3.5,3.6,3.5c0.6,0,1.3-0.1,1.9-0.2C929.3,2345.7,930.3,2346.8,931,2349.5z"/>
	<path class="st0" d="M1035.5,2309.8l-8.8,50.3c-3.1,17.5-15.8,29.8-34.5,29.8c-13.6,0-24.1-4.7-29.3-14.2c-1.3-2.3-0.4-4.4,1.8-5.6
		l8.5-4.9c2.3-1.4,4.1-0.7,5.7,1.5c3.2,4.4,7.8,6.7,14.2,6.7c7.8,0,13.2-5.7,14.8-14.6l1-5.5c-3.5,3.4-8.3,5.5-14.6,5.5
		c-11.5,0-20.8-7.4-20.8-20.4c0-1.5,0.2-4.2,0.6-7l3.8-22.3c0.4-2.7,2-3.8,4.6-3.8h10.3c2.9,0,4.4,1.6,3.8,4.6l-3.4,19.8
		c-0.3,1.8-0.6,3.9-0.6,5.7c0,5.8,3.7,8.5,9.1,8.5c4.8,0,9.5-2.9,10.5-9.7h0.1l4.5-25.1c0.4-2.7,2-3.8,4.6-3.8h10.3
		C1034.5,2305.2,1036,2306.8,1035.5,2309.8z"/>
</g>
<g>
	<path class="st0" d="M292.8,3111.4l2.5,10.5c1,4.2-0.3,7.1-4.4,8.3c-4.6,1.5-9.5,2.6-15,2.6c-15.1,0-27.9-8.7-27.9-25.8
		c0-2.4,0.2-4.1,0.5-6.8l16.5-93.8c0.7-4.2,3.2-6.1,7.3-6.1h16.5c4.6,0,7.1,2.5,6.3,7.3l-15.5,88.7c-0.5,2.5-0.5,3.4-0.5,4.4
		c0,3.4,1.9,5.6,5.8,5.6c1,0,2-0.2,3.1-0.3C290.1,3105.5,291.8,3107.2,292.8,3111.4z"/>
	<path class="st0" d="M236.8,3111.2l2.5,10.5c1,4.2-0.3,7.1-4.4,8.3c-4.6,1.5-9.5,2.6-15,2.6c-15.1,0-27.9-8.7-27.9-25.8
		c0-2.4,0.2-4.1,0.5-6.8l16.5-93.8c0.7-4.2,3.2-6.1,7.3-6.1h16.5c4.6,0,7.1,2.5,6.3,7.3l-15.5,88.7c-0.5,2.5-0.5,3.4-0.5,4.4
		c0,3.4,1.9,5.6,5.8,5.6c1,0,2-0.2,3.1-0.3C234.1,3105.2,235.8,3106.9,236.8,3111.2z"/>
	<path class="st0" d="M404,3047.7l-14.1,80.6c-4.9,28-25.3,47.7-55.2,47.7c-21.8,0-38.6-7.5-46.9-22.8c-2-3.7-0.7-7,2.9-9l13.6-7.8
		c3.7-2.2,6.6-1.2,9.2,2.4c5.1,7,12.4,10.7,22.8,10.7c12.4,0,21.1-9.1,23.6-23.4l1.5-8.8c-5.6,5.4-13.3,8.8-23.3,8.8
		c-18.4,0-33.3-11.9-33.3-32.6c0-2.4,0.3-6.8,1-11.2l6.1-35.7c0.7-4.2,3.2-6.1,7.3-6.1h16.5c4.6,0,7,2.5,6.1,7.3l-5.4,31.6
		c-0.5,2.9-1,6.3-1,9.2c0,9.3,5.9,13.6,14.6,13.6c7.7,0,15.1-4.6,16.8-15.5h0.2l7.1-40.1c0.7-4.2,3.2-6.1,7.3-6.1h16.5
		C402.5,3040.3,404.9,3042.9,404,3047.7z"/>
</g>
<rect x="2411.5" y="-0.5" class="st0" width="1124" height="2436"/>
<g>
	<path class="st1" d="M2738.3,488.4l2.5,10.5c1,4.2-0.3,7.1-4.4,8.3c-4.6,1.5-9.5,2.6-15,2.6c-15.1,0-27.9-8.7-27.9-25.8
		c0-2.4,0.2-4.1,0.5-6.8l16.5-93.8c0.7-4.2,3.2-6.1,7.3-6.1h16.5c4.6,0,7.1,2.5,6.3,7.3l-15.5,88.7c-0.5,2.5-0.5,3.4-0.5,4.4
		c0,3.4,1.9,5.6,5.8,5.6c1,0,2-0.2,3.1-0.3C2735.5,482.5,2737.2,484.2,2738.3,488.4z"/>
	<path class="st1" d="M2844.7,458c0,30.6-21.8,51.8-50.5,51.8c-29.9,0-45-19.4-45-42.3c0-30.6,21.8-51.8,50.5-51.8
		C2829.5,415.6,2844.7,435,2844.7,458z M2798.1,442.2c-12.2,0-18.4,11.1-18.4,24.3c0,9.2,4.9,16.8,16,16.8c12.2,0,18.4-11,18.4-24.3
		C2814.1,449.8,2809.1,442.2,2798.1,442.2z"/>
	<path class="st1" d="M2945.8,480.9c-8.2,17.7-23.6,28.9-45.4,28.9c-30.1,0-45.2-19.4-45.2-42.3c0-30.6,21.8-51.8,50.7-51.8
		c24.8,0,37.7,13.3,43,29.6c1.4,4.2-1,7.1-5.4,7.8l-16.5,2.6c-4.1,0.7-6.1-1.4-8.2-5.1c-2.7-4.9-7.5-8.3-14.5-8.3
		c-11.7,0-18.5,11.1-18.5,24.3c0,9.2,5.6,16.8,16.2,16.8c6.3,0,11.6-3.4,14.8-8.5c2.2-3.6,4.4-5.3,8.5-4.6l15.8,2.4
		C2945.7,473.3,2947.9,476.5,2945.8,480.9z"/>
	<path class="st1" d="M3049.2,448.8c0,2,0,4.1-0.9,9.4l-7.6,43.9c-0.7,4.2-3.2,6.1-7.3,6.1h-13.1c-4.6,0-7-2.5-6.1-7.3l0.9-4.9
		c-6.8,8.3-16.7,13.9-29.6,13.9c-18.5,0-28.2-10.9-28.2-23.5c0-18.5,15.1-23.6,35.5-28.7l25.8-6.5c-0.9-6.5-5.6-10-15-10
		c-6.1,0-12.4,2.9-17.7,8c-3.1,3.1-5.9,3.7-9.5,1.2l-9.2-6.5c-3.7-2.7-4.4-6-1.5-9.2c10.5-11.9,24.5-19,42-19
		C3033,415.6,3049.2,429.2,3049.2,448.8z M3015.7,472.6l0.8-4.6l-16.8,4.6c-8.5,2.4-11.4,5.1-11.4,9.5c0,3.6,2.4,7,8.2,7
		C3004.3,489.1,3013,483,3015.7,472.6z"/>
	<path class="st1" d="M3104.8,488.4l2.5,10.5c1,4.2-0.3,7.1-4.4,8.3c-4.6,1.5-9.5,2.6-15,2.6c-15.1,0-27.9-8.7-27.9-25.8
		c0-2.4,0.2-4.1,0.5-6.8l16.5-93.8c0.7-4.2,3.2-6.1,7.3-6.1h16.5c4.6,0,7.1,2.5,6.3,7.3l-15.5,88.7c-0.5,2.5-0.5,3.4-0.5,4.4
		c0,3.4,1.9,5.6,5.8,5.6c1,0,2-0.2,3.1-0.3C3102.1,482.5,3103.8,484.2,3104.8,488.4z"/>
	<path class="st1" d="M3216,424.7l-14.1,80.6c-4.9,28-25.3,47.7-55.2,47.7c-21.8,0-38.6-7.5-46.9-22.8c-2-3.7-0.7-7,2.9-9l13.6-7.8
		c3.7-2.2,6.6-1.2,9.2,2.4c5.1,7,12.4,10.7,22.8,10.7c12.4,0,21.1-9.1,23.6-23.4l1.5-8.8c-5.6,5.4-13.3,8.8-23.3,8.8
		c-18.4,0-33.3-11.9-33.3-32.6c0-2.4,0.3-6.8,1-11.2l6.1-35.7c0.7-4.2,3.2-6.1,7.3-6.1h16.5c4.6,0,7,2.5,6.1,7.3l-5.4,31.6
		c-0.5,2.9-1,6.3-1,9.2c0,9.3,5.9,13.6,14.6,13.6c7.7,0,15.1-4.6,16.8-15.5h0.2l7.1-40.1c0.7-4.2,3.2-6.1,7.3-6.1h16.5
		C3214.5,417.3,3216.9,419.9,3216,424.7z"/>
</g>
<g>
	<path class="st1" d="M3106.8,672.4l2.5,10.5c1,4.2-0.3,7.1-4.4,8.3c-4.6,1.5-9.5,2.6-15,2.6c-15.1,0-27.9-8.7-27.9-25.8
		c0-2.4,0.2-4.1,0.5-6.8l16.5-93.8c0.7-4.2,3.2-6.1,7.3-6.1h16.5c4.6,0,7.1,2.5,6.3,7.3l-15.5,88.7c-0.5,2.5-0.5,3.4-0.5,4.4
		c0,3.4,1.9,5.6,5.8,5.6c1,0,2-0.2,3.1-0.3C3104.1,666.5,3105.8,668.2,3106.8,672.4z"/>
	<path class="st1" d="M3050.8,672.2l2.5,10.5c1,4.2-0.3,7.1-4.4,8.3c-4.6,1.5-9.5,2.6-15,2.6c-15.1,0-27.9-8.7-27.9-25.8
		c0-2.4,0.2-4.1,0.5-6.8l16.5-93.8c0.7-4.2,3.2-6.1,7.3-6.1h16.5c4.6,0,7.1,2.5,6.3,7.3l-15.5,88.7c-0.5,2.5-0.5,3.4-0.5,4.4
		c0,3.4,1.9,5.6,5.8,5.6c1,0,2-0.2,3.1-0.3C3048.1,666.2,3049.8,667.9,3050.8,672.2z"/>
	<path class="st1" d="M3218,608.7l-14.1,80.6c-4.9,28-25.3,47.7-55.2,47.7c-21.8,0-38.6-7.5-46.9-22.8c-2-3.7-0.7-7,2.9-9l13.6-7.8
		c3.7-2.2,6.6-1.2,9.2,2.4c5.1,7,12.4,10.7,22.8,10.7c12.4,0,21.1-9.1,23.6-23.4l1.5-8.8c-5.6,5.4-13.3,8.8-23.3,8.8
		c-18.4,0-33.3-11.9-33.3-32.6c0-2.4,0.3-6.8,1-11.2l6.1-35.7c0.7-4.2,3.2-6.1,7.3-6.1h16.5c4.6,0,7,2.5,6.1,7.3l-5.4,31.6
		c-0.5,2.9-1,6.3-1,9.2c0,9.3,5.9,13.6,14.6,13.6c7.7,0,15.1-4.6,16.8-15.5h0.2l7.1-40.1c0.7-4.2,3.2-6.1,7.3-6.1h16.5
		C3216.5,601.3,3218.9,603.9,3218,608.7z"/>
</g>
<rect x="-1635.6" y="2487.2" style="fill:none;" width="571.6" height="197.8"/>
<text transform="matrix(1 0 0 1 -1635.5557 2614.7222)" class="st1" style="font-family:'Silka-BlackItalic'; font-size:170px;">localy</text>
<rect x="-1014.6" y="2507.2" style="fill:none;" width="569.6" height="244.4"/>
<text transform="matrix(1 0 0 1 -1014.5557 2638.1201)" class="st1" style="font-family:'F37GruffySoftTest-BlackItalic'; font-size:170px;">localy</text>
<rect x="-1650.6" y="2659.2" style="fill:none;" width="227.6" height="197.8"/>
<text transform="matrix(1 0 0 1 -1650.5557 2786.7227)" class="st1" style="font-family:'Silka-BlackItalic'; font-size:170px;">lly</text>
<rect x="-1037.6" y="2667.2" style="fill:none;" width="244.6" height="244.4"/>
<text transform="matrix(1 0 0 1 -1037.5557 2798.1201)" class="st1" style="font-family:'F37GruffySoftTest-BlackItalic'; font-size:170px;">lly</text>
<path class="st0" d="M5722,1602c197,0,386.2,33.1,562.5,94V273.5h-1124v1422.1C5336.5,1634.9,5525.4,1602,5722,1602z"/>
<path class="st2" d="M562,1329c197,0,386.2,33.1,562.5,94V0.5H0.5v1422.1C176.5,1361.9,365.4,1329,562,1329z"/>
<g>
	<path class="st1" d="M345.9,400.4l2.5,10.5c1,4.2-0.3,7.1-4.4,8.3c-4.6,1.5-9.5,2.6-15,2.6c-15.1,0-27.9-8.7-27.9-25.8
		c0-2.4,0.2-4.1,0.5-6.8l16.5-93.8c0.7-4.2,3.2-6.1,7.3-6.1H342c4.6,0,7.1,2.5,6.3,7.3l-15.5,88.7c-0.5,2.5-0.5,3.4-0.5,4.4
		c0,3.4,1.9,5.6,5.8,5.6c1,0,2-0.2,3.1-0.3C343.2,394.5,344.9,396.2,345.9,400.4z"/>
	<path class="st1" d="M452.3,370c0,30.6-21.8,51.8-50.5,51.8c-29.9,0-45-19.4-45-42.3c0-30.6,21.8-51.8,50.5-51.8
		C437.2,327.6,452.3,347,452.3,370z M405.7,354.2c-12.2,0-18.4,11.1-18.4,24.3c0,9.2,4.9,16.8,16,16.8c12.2,0,18.4-11,18.4-24.3
		C421.7,361.8,416.8,354.2,405.7,354.2z"/>
	<path class="st1" d="M553.5,392.9c-8.2,17.7-23.6,28.9-45.4,28.9c-30.1,0-45.2-19.4-45.2-42.3c0-30.6,21.8-51.8,50.7-51.8
		c24.8,0,37.7,13.3,43,29.6c1.4,4.2-1,7.1-5.4,7.8l-16.5,2.6c-4.1,0.7-6.1-1.4-8.2-5.1c-2.7-4.9-7.5-8.3-14.5-8.3
		c-11.7,0-18.5,11.1-18.5,24.3c0,9.2,5.6,16.8,16.2,16.8c6.3,0,11.6-3.4,14.8-8.5c2.2-3.6,4.4-5.3,8.5-4.6l15.8,2.4
		C553.3,385.3,555.5,388.5,553.5,392.9z"/>
	<path class="st1" d="M656.8,360.8c0,2,0,4.1-0.9,9.4l-7.6,43.9c-0.7,4.2-3.2,6.1-7.3,6.1h-13.1c-4.6,0-7-2.5-6.1-7.3l0.9-4.9
		c-6.8,8.3-16.7,13.9-29.6,13.9c-18.5,0-28.2-10.9-28.2-23.5c0-18.5,15.1-23.6,35.5-28.7l25.8-6.5c-0.9-6.5-5.6-10-15-10
		c-6.1,0-12.4,2.9-17.7,8c-3.1,3.1-5.9,3.7-9.5,1.2l-9.2-6.5c-3.7-2.7-4.4-6-1.5-9.2c10.5-11.9,24.5-19,42-19
		C640.7,327.6,656.8,341.2,656.8,360.8z M623.3,384.6l0.8-4.6l-16.8,4.6c-8.5,2.4-11.4,5.1-11.4,9.5c0,3.6,2.4,7,8.2,7
		C611.9,401.1,620.6,395,623.3,384.6z"/>
	<path class="st1" d="M712.4,400.4l2.5,10.5c1,4.2-0.3,7.1-4.4,8.3c-4.6,1.5-9.5,2.6-15,2.6c-15.1,0-27.9-8.7-27.9-25.8
		c0-2.4,0.2-4.1,0.5-6.8l16.5-93.8c0.7-4.2,3.2-6.1,7.3-6.1h16.5c4.6,0,7.1,2.5,6.3,7.3l-15.5,88.7c-0.5,2.5-0.5,3.4-0.5,4.4
		c0,3.4,1.9,5.6,5.8,5.6c1,0,2-0.2,3.1-0.3C709.7,394.5,711.4,396.2,712.4,400.4z"/>
	<path class="st1" d="M823.6,336.7l-14.1,80.6c-4.9,28-25.3,47.7-55.2,47.7c-21.8,0-38.6-7.5-46.9-22.8c-2-3.7-0.7-7,2.9-9l13.6-7.8
		c3.7-2.2,6.6-1.2,9.2,2.4c5.1,7,12.4,10.7,22.8,10.7c12.4,0,21.1-9.1,23.6-23.4l1.5-8.8c-5.6,5.4-13.3,8.8-23.3,8.8
		c-18.4,0-33.3-11.9-33.3-32.6c0-2.4,0.3-6.8,1-11.2l6.1-35.7c0.7-4.2,3.2-6.1,7.3-6.1h16.5c4.6,0,7,2.5,6.1,7.3l-5.4,31.6
		c-0.5,2.9-1,6.3-1,9.2c0,9.3,5.9,13.6,14.6,13.6c7.7,0,15.1-4.6,16.8-15.5h0.2l7.1-40.1c0.7-4.2,3.2-6.1,7.3-6.1h16.5
		C822.1,329.3,824.5,331.9,823.6,336.7z"/>
</g>
</svg>
