<?xml version="1.0" encoding="utf-8"?>
<!-- Generator: Adobe Illustrator 26.0.2, SVG Export Plug-In . SVG Version: 6.00 Build 0)  -->
<svg version="1.1" id="Capa_1" xmlns="http://www.w3.org/2000/svg" xmlns:xlink="http://www.w3.org/1999/xlink" x="0px" y="0px"
	 viewBox="0 0 700 700" style="enable-background:new 0 0 700 700;" xml:space="preserve">
<style type="text/css">
	.st0{fill:#2C28DB;}
</style>
<g>
	<path class="st0" d="M578.7,509.4l-63.4-63.4c-8.8-8.8-20.6-13.7-33.1-13.7c-8.8,0-17.2,2.4-24.5,6.9l-29.2-29.2
		c67.7-75.7,65.2-192.4-7.5-265.1c-75.3-75.3-197.8-75.3-273,0c-75.3,75.3-75.3,197.8,0,273c37.6,37.6,87.1,56.5,136.5,56.5
		c46,0,92.1-16.3,128.5-48.9l29.2,29.2c-11.1,18-8.8,42,6.8,57.6l63.4,63.4c8.8,8.8,20.6,13.7,33.1,13.7c12.5,0,24.3-4.9,33.1-13.7
		c8.8-8.8,13.7-20.6,13.7-33.1C592.4,530,587.5,518.2,578.7,509.4L578.7,509.4z M163.3,402.4c-66.7-66.7-66.7-175.3,0-242.1
		c33.4-33.4,77.2-50.1,121-50.1c43.8,0,87.7,16.7,121,50.1c66.7,66.7,66.7,175.3,0,242.1l0,0l0,0
		C338.7,469.1,230.1,469.1,163.3,402.4L163.3,402.4z M563.2,560.2c-4.7,4.7-11,7.3-17.7,7.3s-12.9-2.6-17.7-7.3l-63.4-63.4
		c-9.7-9.7-9.7-25.6,0-35.3c4.7-4.7,11-7.3,17.7-7.3s12.9,2.6,17.7,7.3l63.4,63.4c4.7,4.7,7.3,11,7.3,17.7
		C570.5,549.2,567.9,555.5,563.2,560.2L563.2,560.2z"/>
</g>
</svg>
